<svg width="119" height="119" viewBox="0 0 119 119" fill="none" xmlns="http://www.w3.org/2000/svg">
<path d="M94.0584 19.8018H24.7522C20.8134 19.8018 17.0359 21.3664 14.2507 24.1516C11.4656 26.9368 9.90088 30.7143 9.90088 34.6531V84.1575C9.90088 88.0963 11.4656 91.8738 14.2507 94.6589C17.0359 97.4441 20.8134 99.0088 24.7522 99.0088H94.0584C97.9972 99.0088 101.775 97.4441 104.56 94.6589C107.345 91.8738 108.91 88.0963 108.91 84.1575V34.6531C108.91 30.7143 107.345 26.9368 104.56 24.1516C101.775 21.3664 97.9972 19.8018 94.0584 19.8018V19.8018ZM90.7416 29.7026L59.4053 53.2172L28.069 29.7026H90.7416ZM94.0584 89.1079H24.7522C23.4393 89.1079 22.1801 88.5864 21.2517 87.658C20.3233 86.7296 19.8018 85.4704 19.8018 84.1575V35.8907L56.435 63.3656C57.2919 64.0083 58.3342 64.3557 59.4053 64.3557C60.4764 64.3557 61.5186 64.0083 62.3755 63.3656L99.0088 35.8907V84.1575C99.0088 85.4704 98.4872 86.7296 97.5589 87.658C96.6305 88.5864 95.3713 89.1079 94.0584 89.1079Z" fill="#231F20"/>
</svg>
