<svg width="119" height="119" viewBox="0 0 119 119" fill="none" xmlns="http://www.w3.org/2000/svg">
<path d="M59.4053 4.95024C45.1157 4.80503 31.353 10.3393 21.142 20.3368C10.931 30.3343 5.10717 43.977 4.95044 58.2665C5.0055 69.5593 8.63824 80.5441 15.3269 89.6431C22.0155 98.7421 31.4159 105.487 42.1777 108.909C44.9005 109.405 45.8906 107.771 45.8906 106.335C45.8906 104.9 45.8906 101.731 45.8906 97.2759C30.7422 100.494 27.5244 90.1473 27.5244 90.1473C26.516 86.8993 24.3722 84.1228 21.4849 82.3256C16.5345 79.0583 21.8809 79.1078 21.8809 79.1078C23.5921 79.3366 25.2292 79.9498 26.6696 80.9014C28.1099 81.8531 29.3161 83.1185 30.1977 84.6028C31.734 87.2668 34.2547 89.221 37.2175 90.045C40.1802 90.869 43.348 90.4969 46.0391 89.0087C46.3159 86.2978 47.5435 83.7723 49.5044 81.8801C37.4253 80.5435 24.7522 75.989 24.7522 55.5437C24.6442 50.2105 26.6148 45.0444 30.2472 41.138C28.5929 36.5591 28.7882 31.5158 30.7917 27.0787C30.7917 27.0787 35.3956 25.6431 45.6431 32.5242C54.5632 30.1472 63.9503 30.1472 72.8705 32.5242C83.2664 25.6431 87.7218 27.0787 87.7218 27.0787C89.7253 31.5158 89.9206 36.5591 88.2663 41.138C91.9831 44.9728 94.0606 50.1043 94.0584 55.4447C94.0584 75.9395 81.2862 80.4444 69.3062 81.7811C70.6179 83.0547 71.6312 84.6031 72.2732 86.315C72.9152 88.0269 73.1699 89.8598 73.019 91.6819V106.286C73.019 106.286 74.0091 109.405 76.7318 108.86C87.4632 105.416 96.8319 98.6698 103.5 89.5836C110.168 80.4975 113.794 69.5366 113.86 58.2665C113.703 43.977 107.88 30.3343 97.6686 20.3368C87.4576 10.3393 73.6949 4.80503 59.4053 4.95024" fill="#231F20"/>
</svg>
