<svg width="128" height="129" viewBox="0 0 128 129" fill="none" xmlns="http://www.w3.org/2000/svg">
<path d="M106.539 58.9137C105.129 58.9137 103.777 59.4738 102.78 60.4707C101.783 61.4677 101.223 62.8199 101.223 64.2298V96.1261C101.223 97.536 100.663 98.8881 99.6661 99.8851C98.6692 100.882 97.317 101.442 95.9071 101.442H32.1145C30.7046 101.442 29.3525 100.882 28.3555 99.8851C27.3586 98.8881 26.7985 97.536 26.7985 96.1261V32.3335C26.7985 30.9236 27.3586 29.5714 28.3555 28.5744C29.3525 27.5775 30.7046 27.0174 32.1145 27.0174H64.0108C65.4207 27.0174 66.7729 26.4573 67.7698 25.4604C68.7668 24.4634 69.3269 23.1113 69.3269 21.7014C69.3269 20.2915 68.7668 18.9393 67.7698 17.9423C66.7729 16.9454 65.4207 16.3853 64.0108 16.3853H32.1145C27.8848 16.3853 23.8283 18.0656 20.8375 21.0564C17.8466 24.0473 16.1664 28.1038 16.1664 32.3335V96.1261C16.1664 100.356 17.8466 104.412 20.8375 107.403C23.8283 110.394 27.8848 112.074 32.1145 112.074H95.9071C100.137 112.074 104.193 110.394 107.184 107.403C110.175 104.412 111.855 100.356 111.855 96.1261V64.2298C111.855 62.8199 111.295 61.4677 110.298 60.4707C109.301 59.4738 107.949 58.9137 106.539 58.9137Z" fill="#231F20"/>
<path d="M85.275 27.0174H93.6744L60.2364 60.4022C59.7382 60.8964 59.3427 61.4844 59.0728 62.1322C58.8029 62.78 58.6639 63.4748 58.6639 64.1766C58.6639 64.8784 58.8029 65.5732 59.0728 66.221C59.3427 66.8688 59.7382 67.4568 60.2364 67.951C60.7306 68.4493 61.3186 68.8447 61.9664 69.1146C62.6142 69.3845 63.309 69.5235 64.0108 69.5235C64.7126 69.5235 65.4074 69.3845 66.0552 69.1146C66.7031 68.8447 67.291 68.4493 67.7852 67.951L101.223 34.5662V42.9656C101.223 44.3755 101.783 45.7276 102.78 46.7246C103.777 47.7215 105.129 48.2816 106.539 48.2816C107.949 48.2816 109.301 47.7215 110.298 46.7246C111.295 45.7276 111.855 44.3755 111.855 42.9656V21.7014C111.855 20.2915 111.295 18.9393 110.298 17.9423C109.301 16.9454 107.949 16.3853 106.539 16.3853H85.275C83.8651 16.3853 82.513 16.9454 81.516 17.9423C80.519 18.9393 79.959 20.2915 79.959 21.7014C79.959 23.1113 80.519 24.4634 81.516 25.4604C82.513 26.4573 83.8651 27.0174 85.275 27.0174V27.0174Z" fill="#231F20"/>
</svg>
