<svg width="49" height="44" viewBox="0 0 49 44" fill="none" xmlns="http://www.w3.org/2000/svg">
<path d="M38.7917 5.5C39.8746 5.5 40.9132 5.88631 41.679 6.57394C42.4448 7.26158 42.875 8.19421 42.875 9.16667V34.8333C42.875 35.8058 42.4448 36.7384 41.679 37.4261C40.9132 38.1137 39.8746 38.5 38.7917 38.5H10.2083C9.12537 38.5 8.08675 38.1137 7.32098 37.4261C6.55521 36.7384 6.125 35.8058 6.125 34.8333V9.16667C6.125 8.19421 6.55521 7.26158 7.32098 6.57394C8.08675 5.88631 9.12537 5.5 10.2083 5.5H38.7917ZM37.7708 33.9167V24.2C37.7708 22.6149 37.0696 21.0947 35.8214 19.9739C34.5732 18.853 32.8802 18.2233 31.115 18.2233C29.3796 18.2233 27.3583 19.1767 26.3783 20.6067V18.5717H20.6821V33.9167H26.3783V24.8783C26.3783 23.4667 27.6442 22.3117 29.2163 22.3117C29.9743 22.3117 30.7014 22.5821 31.2374 23.0634C31.7734 23.5448 32.0746 24.1976 32.0746 24.8783V33.9167H37.7708ZM14.0467 15.6933C14.9564 15.6933 15.8288 15.3688 16.472 14.7912C17.1153 14.2136 17.4767 13.4302 17.4767 12.6133C17.4767 10.9083 15.9454 9.515 14.0467 9.515C13.1316 9.515 12.2539 9.84143 11.6069 10.4225C10.9598 11.0035 10.5963 11.7916 10.5963 12.6133C10.5963 14.3183 12.1479 15.6933 14.0467 15.6933M16.8846 33.9167V18.5717H11.2292V33.9167H16.8846V33.9167Z" fill="black"/>
</svg>
